<?xml version="1.0" encoding="utf-8"?>
<!-- Generator: Adobe Illustrator 16.0.0, SVG Export Plug-In . SVG Version: 6.00 Build 0)  -->
<!DOCTYPE svg PUBLIC "-//W3C//DTD SVG 1.1//EN" "http://www.w3.org/Graphics/SVG/1.1/DTD/svg11.dtd">
<svg version="1.1" id="Warstwa_1" xmlns="http://www.w3.org/2000/svg" xmlns:xlink="http://www.w3.org/1999/xlink" x="0px" y="0px"
	 width="285.663px" height="51.534px" viewBox="0 0 285.663 51.534" enable-background="new 0 0 285.663 51.534"
	 xml:space="preserve">
<g>
	<path fill="#FFFFFF" d="M64.656,5.701v35.311h-8.015V5.701H64.656z"/>
	<path fill="#FFFFFF" d="M71.467,23.565c0-3.195-0.104-5.92-0.209-8.173h6.915l0.366,3.51h0.157
		c1.048-1.624,3.667-4.086,7.911-4.086c5.239,0,9.168,3.458,9.168,11.001v15.193h-7.963V26.813c0-3.301-1.152-5.554-4.034-5.554
		c-2.2,0-3.51,1.519-4.034,2.986c-0.209,0.471-0.314,1.257-0.314,1.99V41.01h-7.963V23.565z"/>
	<path fill="#FFFFFF" d="M110.762,8.059v7.334h5.711v5.867h-5.711v9.271c0,3.093,0.733,4.507,3.143,4.507
		c0.996,0,1.782-0.105,2.358-0.21l0.052,6.024c-1.047,0.419-2.934,0.682-5.186,0.682c-2.567,0-4.715-0.891-5.973-2.2
		c-1.467-1.521-2.201-3.981-2.201-7.598V21.261h-3.404v-5.867h3.404V9.84L110.762,8.059z"/>
</g>
<g>
	<path fill="#FFFFFF" d="M130.943,30.803l-3.445,10.439h-4.432l11.275-33.188h5.17l11.324,33.188h-4.578l-3.545-10.439H130.943z
		 M141.826,27.455l-3.25-9.553c-0.738-2.166-1.23-4.136-1.723-6.056h-0.1c-0.492,1.97-1.033,3.988-1.674,6.007l-3.25,9.602H141.826z
		"/>
	<path fill="#FFFFFF" d="M175.507,17.411c-0.098,1.724-0.195,3.644-0.195,6.549v13.836c0,5.465-1.084,8.813-3.396,10.881
		c-2.314,2.166-5.664,2.855-8.666,2.855c-2.855,0-6.008-0.689-7.93-1.97l1.084-3.299c1.576,0.984,4.037,1.871,6.992,1.871
		c4.432,0,7.68-2.314,7.68-8.322v-2.658h-0.098c-1.33,2.217-3.891,3.988-7.582,3.988c-5.908,0-10.143-5.021-10.143-11.62
		c0-8.075,5.268-12.653,10.732-12.653c4.135,0,6.4,2.167,7.436,4.136h0.098l0.197-3.594H175.507z M171.026,26.813
		c0-0.737-0.051-1.378-0.244-1.969c-0.789-2.511-2.906-4.579-6.061-4.579c-4.133,0-7.088,3.496-7.088,9.011
		c0,4.678,2.361,8.567,7.041,8.567c2.658,0,5.07-1.674,6.008-4.432c0.244-0.738,0.344-1.576,0.344-2.314V26.813L171.026,26.813z"/>
	<path fill="#FFFFFF" d="M184.913,30.112c0.1,5.86,3.842,8.272,8.174,8.272c3.104,0,4.975-0.541,6.598-1.23l0.738,3.103
		c-1.525,0.689-4.135,1.478-7.928,1.478c-7.336,0-11.721-4.824-11.721-12.014s4.236-12.852,11.18-12.852
		c7.779,0,9.85,6.844,9.85,11.226c0,0.887-0.102,1.575-0.148,2.019L184.913,30.112L184.913,30.112z M197.616,27.013
		c0.049-2.758-1.133-7.041-6.006-7.041c-4.383,0-6.305,4.037-6.646,7.041H197.616z"/>
	<path fill="#FFFFFF" d="M207.171,23.86c0-2.463-0.049-4.48-0.197-6.45h3.84l0.248,3.938h0.098c1.184-2.266,3.941-4.48,7.879-4.48
		c3.299,0,8.42,1.97,8.42,10.144V41.24h-4.332V27.504c0-3.84-1.43-7.041-5.516-7.041c-2.855,0-5.072,2.019-5.811,4.432
		c-0.197,0.542-0.297,1.281-0.297,2.02v14.328h-4.332V23.86z"/>
	<path fill="#FFFFFF" d="M251.487,40.354c-1.133,0.592-3.645,1.379-6.846,1.379c-7.188,0-11.865-4.874-11.865-12.162
		c0-7.336,5.021-12.653,12.803-12.653c2.559,0,4.824,0.641,6.006,1.23l-0.982,3.349c-1.035-0.591-2.66-1.133-5.021-1.133
		c-5.469,0-8.42,4.037-8.42,9.011c0,5.516,3.543,8.913,8.27,8.913c2.461,0,4.088-0.642,5.318-1.183L251.487,40.354z"/>
	<path fill="#FFFFFF" d="M250.749,48.136c1.971-0.147,3.693-0.689,4.727-1.822c1.184-1.378,1.625-3.249,1.625-8.961V17.411h4.334
		v21.615c0,4.629-0.74,7.633-2.855,9.8c-1.92,1.92-5.072,2.708-7.387,2.708L250.749,48.136z M261.927,10.714
		c0.049,1.428-0.984,2.659-2.709,2.659c-1.625,0-2.656-1.231-2.656-2.659c0-1.527,1.129-2.708,2.756-2.708
		C260.892,8.006,261.927,9.188,261.927,10.714z"/>
	<path fill="#FFFFFF" d="M281.722,41.242l-0.346-3.004h-0.146c-1.33,1.871-3.891,3.546-7.289,3.546
		c-4.822,0-7.283-3.398-7.283-6.846c0-5.761,5.117-8.912,14.326-8.862v-0.492c0-1.971-0.541-5.516-5.416-5.516
		c-2.217,0-4.531,0.689-6.205,1.773l-0.982-2.856c1.969-1.279,4.824-2.116,7.826-2.116c7.287,0,9.061,4.973,9.061,9.749v8.911
		c0,2.068,0.1,4.088,0.396,5.713H281.722z M281.081,29.08c-4.727-0.1-10.096,0.737-10.096,5.366c0,2.808,1.873,4.137,4.088,4.137
		c3.104,0,5.07-1.97,5.764-3.988c0.146-0.444,0.244-0.936,0.244-1.379V29.08z"/>
</g>
<path fill="#FFFFFF" d="M24.943,32.704c0.945,1.035,1.622,1.972,2.48,2.691c3.311,2.778,8.006,2.728,11.188-0.189
	c2.139-1.958,4.235-3.992,6.149-6.167c2.132-2.424,2.655-5.302,1.568-8.402c-1.272-3.627-4.64-5.402-7.003-8.118
	c0.354,4.41-1.556,7.649-4.559,10.495C31.418,26.193,28.182,29.498,24.943,32.704z M34.391,39.331
	c-4.157,0.346-7.325-1.354-10.077-4.167c-3.165-3.236-6.39-6.412-9.596-9.605c-0.229-0.224-0.516-0.39-0.918-0.689
	c-0.573,0.642-1.08,1.241-1.626,1.811c-3.469,3.603-3.603,8.505-0.213,12.19c1.866,2.025,3.794,4.012,5.858,5.826
	c2.516,2.207,5.479,2.775,8.655,1.565C29.943,44.941,31.788,41.734,34.391,39.331z M7.402,34.539
	c0.126-0.056,0.25-0.106,0.373-0.158c-0.424-3.396,0.618-6.314,2.816-8.81c1.07-1.215,2.257-2.333,3.405-3.478
	c2.679-2.665,5.366-5.32,8.294-8.217c-0.812-0.686-1.507-1.227-2.148-1.824c-3.53-3.298-8.398-3.428-11.986-0.167
	c-2.073,1.884-4.042,3.896-5.924,5.971c-2.522,2.785-3.031,6.921-0.884,9.959C3.076,30.264,5.362,32.313,7.402,34.539z
	 M32.87,22.182c1.003-1.059,1.914-1.885,2.673-2.833c2.644-3.304,2.508-7.987-0.37-11.096c-1.803-1.951-3.681-3.841-5.63-5.645
	c-3.176-2.933-7.428-3.51-10.688-1.129c-2.348,1.716-4.308,3.96-6.445,5.972c3.431-0.188,6.278,0.766,8.723,2.904
	c1.001,0.875,1.913,1.85,2.849,2.794C26.912,16.121,29.834,19.1,32.87,22.182z"/>
<path fill="#919CF8" d="M24.943,32.704c3.238-3.206,6.475-6.511,9.825-9.69c3.003-2.846,4.913-6.084,4.559-10.495
	c2.363,2.716,5.73,4.491,7.003,8.118c1.087,3.101,0.563,5.979-1.568,8.402c-1.914,2.175-4.011,4.209-6.149,6.167
	c-3.183,2.917-7.878,2.969-11.188,0.189C26.565,34.676,25.889,33.739,24.943,32.704z"/>
<path fill="#FFFFFF" d="M34.391,39.331c-2.603,2.403-4.447,5.61-7.916,6.932c-3.177,1.21-6.14,0.642-8.655-1.565
	c-2.064-1.814-3.992-3.801-5.858-5.826c-3.39-3.687-3.256-8.589,0.213-12.19c0.546-0.568,1.053-1.169,1.626-1.811
	c0.402,0.3,0.689,0.466,0.918,0.689c3.206,3.193,6.431,6.369,9.596,9.605C27.065,37.978,30.233,39.677,34.391,39.331z"/>
<path fill="#FFFFFF" d="M7.402,34.539c-2.04-2.228-4.326-4.275-6.054-6.724c-2.147-3.038-1.639-7.174,0.884-9.959
	c1.882-2.075,3.851-4.086,5.924-5.971c3.588-3.261,8.456-3.131,11.986,0.167c0.642,0.598,1.337,1.139,2.148,1.824
	c-2.928,2.896-5.615,5.552-8.294,8.217c-1.148,1.144-2.335,2.262-3.405,3.478c-2.198,2.494-3.24,5.412-2.816,8.81
	C7.652,34.433,7.528,34.483,7.402,34.539z"/>
<path fill="#919CF8" d="M32.87,22.182c-3.036-3.082-5.958-6.061-8.889-9.031c-0.936-0.944-1.848-1.919-2.849-2.794
	c-2.444-2.14-5.292-3.092-8.723-2.904c2.138-2.012,4.098-4.256,6.445-5.972c3.26-2.381,7.512-1.804,10.688,1.129
	c1.949,1.804,3.827,3.693,5.63,5.645c2.878,3.107,3.014,7.792,0.37,11.096C34.784,20.297,33.873,21.123,32.87,22.182z"/>
</svg>
